<svg version="1.1" id="Layer_1" xmlns="http://www.w3.org/2000/svg"
     preserveAspectRatio="xMinYMin meet"
     viewBox="0 0 512 512">
    <circle style="fill:#A5D2F0;" cx="256" cy="256" r="256"/>
    <path style="fill:#FFFFFF;" d="M397.241,397.241H114.759c-4.875,0-8.828-3.953-8.828-8.828V141.241c0-4.875,3.953-8.828,8.828-8.828
	h282.483c4.875,0,8.828,3.953,8.828,8.828v247.172C406.069,393.289,402.116,397.241,397.241,397.241z"/>
    <path style="fill:#FFE431;" d="M397.241,132.414H114.759c-4.876,0-8.828,3.951-8.828,8.828V268.69
	c147.862-87.172,300.138-100.966,300.138-100.966v-26.483C406.069,136.365,402.116,132.414,397.241,132.414z"/>
    <g>
        <path style="fill:#E1E1DF;" d="M251.586,220.69L251.586,220.69c-7.313,0-13.241-5.929-13.241-13.241l0,0
		c0-7.313,5.929-13.241,13.241-13.241l0,0c7.313,0,13.241,5.929,13.241,13.241l0,0C264.828,214.761,258.899,220.69,251.586,220.69z"
        />
        <path style="fill:#E1E1DF;" d="M295.724,220.69L295.724,220.69c-7.313,0-13.241-5.929-13.241-13.241l0,0
		c0-7.313,5.929-13.241,13.241-13.241l0,0c7.313,0,13.241,5.929,13.241,13.241l0,0C308.966,214.761,303.037,220.69,295.724,220.69z"
        />
        <path style="fill:#E1E1DF;" d="M339.862,220.69L339.862,220.69c-7.313,0-13.241-5.929-13.241-13.241l0,0
		c0-7.313,5.929-13.241,13.241-13.241l0,0c7.313,0,13.241,5.929,13.241,13.241l0,0C353.103,214.761,347.175,220.69,339.862,220.69z"
        />
        <path style="fill:#E1E1DF;" d="M163.31,264.828L163.31,264.828c-7.313,0-13.241-5.929-13.241-13.241l0,0
		c0-7.313,5.929-13.241,13.241-13.241l0,0c7.313,0,13.241,5.929,13.241,13.241l0,0C176.552,258.899,170.623,264.828,163.31,264.828z
		"/>
        <path style="fill:#E1E1DF;" d="M207.448,264.828L207.448,264.828c-7.313,0-13.241-5.929-13.241-13.241l0,0
		c0-7.313,5.929-13.241,13.241-13.241l0,0c7.313,0,13.241,5.929,13.241,13.241l0,0C220.69,258.899,214.761,264.828,207.448,264.828z
		"/>
        <path style="fill:#E1E1DF;" d="M251.586,264.828L251.586,264.828c-7.313,0-13.241-5.929-13.241-13.241l0,0
		c0-7.313,5.929-13.241,13.241-13.241l0,0c7.313,0,13.241,5.929,13.241,13.241l0,0C264.828,258.899,258.899,264.828,251.586,264.828
		z"/>
        <path style="fill:#E1E1DF;" d="M295.724,264.828L295.724,264.828c-7.313,0-13.241-5.929-13.241-13.241l0,0
		c0-7.313,5.929-13.241,13.241-13.241l0,0c7.313,0,13.241,5.929,13.241,13.241l0,0C308.966,258.899,303.037,264.828,295.724,264.828
		z"/>
        <path style="fill:#E1E1DF;" d="M339.862,264.828L339.862,264.828c-7.313,0-13.241-5.929-13.241-13.241l0,0
		c0-7.313,5.929-13.241,13.241-13.241l0,0c7.313,0,13.241,5.929,13.241,13.241l0,0C353.103,258.899,347.175,264.828,339.862,264.828
		z"/>
        <path style="fill:#E1E1DF;" d="M163.31,308.966L163.31,308.966c-7.313,0-13.241-5.929-13.241-13.241l0,0
		c0-7.313,5.929-13.241,13.241-13.241l0,0c7.313,0,13.241,5.929,13.241,13.241l0,0C176.552,303.037,170.623,308.966,163.31,308.966z
		"/>
        <path style="fill:#E1E1DF;" d="M207.448,308.966L207.448,308.966c-7.313,0-13.241-5.929-13.241-13.241l0,0
		c0-7.313,5.929-13.241,13.241-13.241l0,0c7.313,0,13.241,5.929,13.241,13.241l0,0C220.69,303.037,214.761,308.966,207.448,308.966z
		"/>
        <path style="fill:#E1E1DF;" d="M251.586,308.966L251.586,308.966c-7.313,0-13.241-5.929-13.241-13.241l0,0
		c0-7.313,5.929-13.241,13.241-13.241l0,0c7.313,0,13.241,5.929,13.241,13.241l0,0C264.828,303.037,258.899,308.966,251.586,308.966
		z"/>
        <path style="fill:#E1E1DF;" d="M295.724,308.966L295.724,308.966c-7.313,0-13.241-5.929-13.241-13.241l0,0
		c0-7.313,5.929-13.241,13.241-13.241l0,0c7.313,0,13.241,5.929,13.241,13.241l0,0C308.966,303.037,303.037,308.966,295.724,308.966
		z"/>
        <path style="fill:#E1E1DF;" d="M339.862,308.966L339.862,308.966c-7.313,0-13.241-5.929-13.241-13.241l0,0
		c0-7.313,5.929-13.241,13.241-13.241l0,0c7.313,0,13.241,5.929,13.241,13.241l0,0C353.103,303.037,347.175,308.966,339.862,308.966
		z"/>
        <path style="fill:#E1E1DF;" d="M163.31,353.103L163.31,353.103c-7.313,0-13.241-5.929-13.241-13.241l0,0
		c0-7.313,5.929-13.241,13.241-13.241l0,0c7.313,0,13.241,5.929,13.241,13.241l0,0C176.552,347.175,170.623,353.103,163.31,353.103z
		"/>
        <path style="fill:#E1E1DF;" d="M207.448,353.103L207.448,353.103c-7.313,0-13.241-5.929-13.241-13.241l0,0
		c0-7.313,5.929-13.241,13.241-13.241l0,0c7.313,0,13.241,5.929,13.241,13.241l0,0C220.69,347.175,214.761,353.103,207.448,353.103z
		"/>
        <path style="fill:#E1E1DF;" d="M251.586,353.103L251.586,353.103c-7.313,0-13.241-5.929-13.241-13.241l0,0
		c0-7.313,5.929-13.241,13.241-13.241l0,0c7.313,0,13.241,5.929,13.241,13.241l0,0C264.828,347.175,258.899,353.103,251.586,353.103
		z"/>
        <path style="fill:#E1E1DF;" d="M295.724,353.103L295.724,353.103c-7.313,0-13.241-5.929-13.241-13.241l0,0
		c0-7.313,5.929-13.241,13.241-13.241l0,0c7.313,0,13.241,5.929,13.241,13.241l0,0C308.966,347.175,303.037,353.103,295.724,353.103
		z"/>
        <path style="fill:#E1E1DF;" d="M339.862,353.103L339.862,353.103c-7.313,0-13.241-5.929-13.241-13.241l0,0
		c0-7.313,5.929-13.241,13.241-13.241l0,0c7.313,0,13.241,5.929,13.241,13.241l0,0C353.103,347.175,347.175,353.103,339.862,353.103
		z"/>
    </g>
    <path style="fill:#B4F000;" d="M397.241,132.414H114.759c-4.876,0-8.828,3.951-8.828,8.828v81.655
	c148.966-59.586,300.138-68.781,300.138-68.781v-12.874C406.069,136.365,402.116,132.414,397.241,132.414z"/>
    <path style="fill:#4B9BFF;" d="M397.241,132.414H114.759c-4.876,0-8.828,3.951-8.828,8.828v37.517
	c141.241-32.367,300.138-37.517,300.138-37.517C406.069,136.365,402.116,132.414,397.241,132.414z"/>
    <g>
        <path style="fill:#B4B4AF;" d="M132.414,150.069L132.414,150.069c-4.875,0-8.828-3.953-8.828-8.828v-17.655
		c0-4.875,3.953-8.828,8.828-8.828l0,0c4.875,0,8.828,3.953,8.828,8.828v17.655C141.241,146.116,137.289,150.069,132.414,150.069z"
        />
        <path style="fill:#B4B4AF;" d="M167.724,150.069L167.724,150.069c-4.875,0-8.828-3.953-8.828-8.828v-17.655
		c0-4.875,3.953-8.828,8.828-8.828l0,0c4.875,0,8.828,3.953,8.828,8.828v17.655C176.552,146.116,172.599,150.069,167.724,150.069z"
        />
        <path style="fill:#B4B4AF;" d="M203.034,150.069L203.034,150.069c-4.875,0-8.828-3.953-8.828-8.828v-17.655
		c0-4.875,3.953-8.828,8.828-8.828l0,0c4.875,0,8.828,3.953,8.828,8.828v17.655C211.862,146.116,207.91,150.069,203.034,150.069z"/>
        <path style="fill:#B4B4AF;" d="M238.345,150.069L238.345,150.069c-4.875,0-8.828-3.953-8.828-8.828v-17.655
		c0-4.875,3.953-8.828,8.828-8.828l0,0c4.875,0,8.828,3.953,8.828,8.828v17.655C247.172,146.116,243.22,150.069,238.345,150.069z"/>
        <path style="fill:#B4B4AF;" d="M273.655,150.069L273.655,150.069c-4.875,0-8.828-3.953-8.828-8.828v-17.655
		c0-4.875,3.953-8.828,8.828-8.828l0,0c4.875,0,8.828,3.953,8.828,8.828v17.655C282.483,146.116,278.53,150.069,273.655,150.069z"/>
        <path style="fill:#B4B4AF;" d="M308.966,150.069L308.966,150.069c-4.875,0-8.828-3.953-8.828-8.828v-17.655
		c0-4.875,3.953-8.828,8.828-8.828l0,0c4.875,0,8.828,3.953,8.828,8.828v17.655C317.793,146.116,313.841,150.069,308.966,150.069z"
        />
        <path style="fill:#B4B4AF;" d="M344.276,150.069L344.276,150.069c-4.875,0-8.828-3.953-8.828-8.828v-17.655
		c0-4.875,3.953-8.828,8.828-8.828l0,0c4.875,0,8.828,3.953,8.828,8.828v17.655C353.103,146.116,349.151,150.069,344.276,150.069z"
        />
        <path style="fill:#B4B4AF;" d="M379.586,150.069L379.586,150.069c-4.875,0-8.828-3.953-8.828-8.828v-17.655
		c0-4.875,3.953-8.828,8.828-8.828l0,0c4.875,0,8.828,3.953,8.828,8.828v17.655C388.414,146.116,384.461,150.069,379.586,150.069z"
        />
    </g>
    <g>
        <path style="fill:#E1E1DF;" d="M163.31,220.69L163.31,220.69c-7.313,0-13.241-5.929-13.241-13.241l0,0
		c0-7.313,5.929-13.241,13.241-13.241l0,0c7.313,0,13.241,5.929,13.241,13.241l0,0C176.552,214.761,170.623,220.69,163.31,220.69z"
        />
        <path style="fill:#E1E1DF;" d="M207.448,220.69L207.448,220.69c-7.313,0-13.241-5.929-13.241-13.241l0,0
		c0-7.313,5.929-13.241,13.241-13.241l0,0c7.313,0,13.241,5.929,13.241,13.241l0,0C220.69,214.761,214.761,220.69,207.448,220.69z"
        />
    </g>
</svg>
